<svg width="583" height="390" viewBox="0 0 583 390" fill="none" xmlns="http://www.w3.org/2000/svg">
<g id="hero-img1" filter="url(#filter0_d_0_372)">
<g id="Group 40">
<g id="Group 52">
<rect id="Rectangle Copy 5" x="4" y="2" width="574.23" height="381.865" rx="25" fill="url(#paint0_linear_0_372)"/>
<g id="GoViral - Wordpress Theme">
<rect id="Mask Copy" opacity="0.1" x="56.0304" y="16.3029" width="471.463" height="353.756" rx="5" fill="#2A2A2A"/>
<rect id="Mask" x="23.0304" y="19.3029" width="536" height="346" rx="8" fill="#E8EAF6"/>
<mask id="mask0_0_372" style="mask-type:alpha" maskUnits="userSpaceOnUse" x="23" y="19" width="537" height="347">
<rect id="Mask_2" x="23.0304" y="19.3029" width="536" height="346" rx="8" fill="white"/>
</mask>
<g mask="url(#mask0_0_372)">
<g id="Group 28">
<rect id="Rectangle" x="19.5" y="19.5" width="547" height="59" fill="#5267DF"/>
<g id="Group 7">
<circle id="Oval" opacity="0.244768" cx="61.5" cy="49.5" r="16" fill="white"/>
<circle id="Oval Copy" opacity="0.104399" cx="522.5" cy="49.5" r="16" fill="white"/>
<g id="Group 6">
<rect id="Rectangle_2" opacity="0.75" x="92.5" y="39.5" width="120" height="6" rx="3" fill="white"/>
<rect id="Rectangle Copy 6" opacity="0.25" x="92.5" y="53.5" width="64" height="6" rx="3" fill="white"/>
</g>
</g>
</g>
<g id="Group 26">
<rect id="Rectangle_3" x="80.0304" y="112.303" width="261" height="316" rx="8" fill="white"/>
<rect id="Rectangle Copy 7" x="375.03" y="112.303" width="128" height="316" rx="8" fill="white"/>
<rect id="Rectangle_4" opacity="0.5" x="158.5" y="150.5" width="120" height="6" rx="3" fill="#242A45"/>
</g>
</g>
</g>
</g>
</g>
<g id="Group 29">
<circle id="Oval_2" cx="127.5" cy="160.5" r="16" fill="#F98E5D"/>
<rect id="Rectangle_5" opacity="0.25" x="395.5" y="134.5" width="88" height="6" rx="3" fill="#242A45"/>
<rect id="Rectangle Copy 8" opacity="0.25" x="395.5" y="154.5" width="88" height="6" rx="3" fill="#242A45"/>
<rect id="Rectangle Copy 9" opacity="0.25" x="395.5" y="174.5" width="88" height="6" rx="3" fill="#242A45"/>
<rect id="Rectangle Copy 10" opacity="0.25" x="395.5" y="194.5" width="88" height="6" rx="3" fill="#242A45"/>
<rect id="Rectangle Copy 11" opacity="0.25" x="395.5" y="228.5" width="88" height="6" rx="3" fill="#242A45"/>
<rect id="Rectangle Copy 12" opacity="0.25" x="395.5" y="248.5" width="88" height="6" rx="3" fill="#242A45"/>
<rect id="Rectangle Copy 13" opacity="0.25" x="395.5" y="268.5" width="88" height="6" rx="3" fill="#242A45"/>
<rect id="Rectangle Copy 6_2" opacity="0.25" x="158.5" y="164.5" width="64" height="6" rx="3" fill="#242A45"/>
</g>
<g id="Group 29 Copy">
<circle id="Oval_3" cx="127.5" cy="216.5" r="16" fill="#6AC6D6"/>
<rect id="Rectangle_6" opacity="0.5" x="158.5" y="206.5" width="120" height="6" rx="3" fill="#242A45"/>
<rect id="Rectangle Copy 6_3" opacity="0.25" x="158.5" y="220.5" width="64" height="6" rx="3" fill="#242A45"/>
</g>
<g id="Group 29 Copy 2">
<circle id="Oval_4" cx="127.5" cy="272.5" r="16" fill="#A47ED4"/>
<rect id="Rectangle_7" opacity="0.5" x="158.5" y="262.5" width="120" height="6" rx="3" fill="#242A45"/>
<rect id="Rectangle Copy 6_4" opacity="0.25" x="158.5" y="276.5" width="64" height="6" rx="3" fill="#242A45"/>
</g>
<g id="Group 29 Copy 3">
<circle id="Oval_5" cx="127.5" cy="328.5" r="16" fill="#EC7878"/>
<rect id="Rectangle_8" opacity="0.5" x="158.5" y="318.5" width="120" height="6" rx="3" fill="#242A45"/>
<rect id="Rectangle Copy 6_5" opacity="0.25" x="158.5" y="332.5" width="64" height="6" rx="3" fill="#242A45"/>
</g>
</g>
<defs>
<filter id="filter0_d_0_372" x="0" y="0" width="582.23" height="389.865" filterUnits="userSpaceOnUse" color-interpolation-filters="sRGB">
<feFlood flood-opacity="0" result="BackgroundImageFix"/>
<feColorMatrix in="SourceAlpha" type="matrix" values="0 0 0 0 0 0 0 0 0 0 0 0 0 0 0 0 0 0 127 0" result="hardAlpha"/>
<feOffset dy="2"/>
<feGaussianBlur stdDeviation="2"/>
<feColorMatrix type="matrix" values="0 0 0 0 0 0 0 0 0 0 0 0 0 0 0 0 0 0 0.5 0"/>
<feBlend mode="normal" in2="BackgroundImageFix" result="effect1_dropShadow_0_372"/>
<feBlend mode="normal" in="SourceGraphic" in2="effect1_dropShadow_0_372" result="shape"/>
</filter>
<linearGradient id="paint0_linear_0_372" x1="849.542" y1="195.906" x2="509.825" y2="-314.944" gradientUnits="userSpaceOnUse">
<stop stop-color="#151515"/>
<stop offset="1" stop-color="#3D3D3D"/>
</linearGradient>
</defs>
</svg>
